<svg width="1000" height="158" viewBox="0 0 1000 158" fill="none" xmlns="http://www.w3.org/2000/svg">
<g clip-path="url(#clip0_362_83)">
<path d="M0 100.553C0 81.7708 14.3397 71.2972 48.7692 67.6842C48.0522 61.1891 44.1017 58.293 36.2149 58.293C29.762 58.293 22.9436 60.8236 13.6228 65.8706L2.86795 45.6403C15.4222 38.0628 28.328 33.7187 42.3163 33.7187C65.6254 33.7187 79.6137 46.3573 79.6137 75.9787V126.182H54.5051L52.3541 117.508H51.6371C44.4672 124.003 36.5804 128.347 26.894 128.347C10.0378 128.347 0 115.343 0 100.539L0 100.553ZM48.7692 98.3881V86.1149C34.0639 88.2799 29.4105 92.9755 29.4105 98.0366C29.4105 102.184 32.2785 104.532 37.6629 104.532C42.6818 104.532 45.5498 102.001 48.7832 98.3881H48.7692Z" fill="#314EF0"/>
<path d="M89.8904 35.8977H114.999L117.15 46.9056H117.867C125.037 39.8623 132.572 33.7187 144.761 33.7187C156.95 33.7187 164.668 38.7797 169.504 48.1709C176.857 40.5933 184.926 33.7187 197.115 33.7187C216.839 33.7187 225.443 48.1709 225.443 70.5521V126.168H194.599V74.5307C194.599 62.9745 191.731 60.0785 185.629 60.0785C182.044 60.0785 177.742 62.2435 173.075 66.9391V126.168H142.23V74.5307C142.23 62.9745 139.363 60.0785 133.261 60.0785C129.676 60.0785 125.374 62.2435 120.707 66.9391V126.168H89.8623V35.8837L89.8904 35.8977Z" fill="#314EF0"/>
<path d="M234.314 35.8977H259.423L261.574 44.2063H262.291C268.926 38.0627 277.713 33.7327 286.682 33.7327C307.84 33.7327 321.463 51.7839 321.463 79.5917C321.463 110.647 303.173 128.347 284.166 128.347C276.63 128.347 269.826 125.099 264.076 119.321L265.145 133.042V157.954H234.3V35.8837L234.314 35.8977ZM289.902 79.9573C289.902 65.1536 285.6 59.01 277.347 59.01C272.68 59.01 269.095 60.8095 265.159 65.5051V98.7255C268.744 101.973 272.694 103.055 276.63 103.055C283.8 103.055 289.902 97.2774 289.902 79.9432V79.9573Z" fill="#314EF0"/>
<path d="M329.927 94.4095V0.512314H360.771V95.492C360.771 101.636 363.639 103.435 365.79 103.435C366.858 103.435 367.575 103.435 369.023 103.07L372.608 125.816C369.389 127.264 364.356 128.347 357.552 128.347C336.745 128.347 329.941 114.626 329.941 94.3954L329.927 94.4095Z" fill="#314EF0"/>
<path d="M373.1 81.0398C373.1 51.7839 394.258 33.7327 416.134 33.7327C442.676 33.7327 455.23 53.2319 455.23 77.4267C455.23 82.8393 454.514 88.2659 453.979 90.4309H402.876C405.744 101.27 413.631 104.883 423.683 104.883C429.784 104.883 435.52 103.084 441.973 99.4706L452.011 117.887C442.325 124.748 429.419 128.361 419.381 128.361C393.204 128.361 373.114 111.027 373.114 81.0538L373.1 81.0398ZM429.039 70.2006C429.039 63.34 426.171 57.1964 416.851 57.1964C410.032 57.1964 404.296 61.175 402.511 70.2006H429.053H429.039Z" fill="#314EF0"/>
<path d="M463.68 35.8977H488.788L490.939 46.9056H491.656C498.826 39.8623 506.362 33.7187 518.55 33.7187C530.739 33.7187 538.457 38.7797 543.293 48.1709C550.646 40.5933 558.716 33.7187 570.904 33.7187C590.629 33.7187 599.232 48.1709 599.232 70.5521V126.168H568.388V74.5307C568.388 62.9745 565.52 60.0785 559.419 60.0785C555.834 60.0785 551.532 62.2435 546.864 66.9391V126.168H516.02V74.5307C516.02 62.9745 513.152 60.0785 507.05 60.0785C503.466 60.0785 499.164 62.2435 494.496 66.9391V126.168H463.652V35.8837L463.68 35.8977Z" fill="#314EF0"/>
<path d="M607.161 100.553C607.161 81.7708 621.501 71.2972 655.931 67.6842C655.214 61.1891 651.263 58.293 643.376 58.293C636.923 58.293 630.105 60.8236 620.784 65.8706L610.029 45.6403C622.584 38.0628 635.489 33.7187 649.478 33.7187C672.787 33.7187 686.775 46.3573 686.775 75.9787V126.182H661.666L659.515 117.508H658.798C651.629 124.003 643.742 128.347 634.055 128.347C617.199 128.347 607.161 115.343 607.161 100.539V100.553ZM655.931 98.3881V86.1149C641.225 88.2799 636.572 92.9755 636.572 98.0366C636.572 102.184 639.44 104.532 644.824 104.532C649.843 104.532 652.711 102.001 655.945 98.3881H655.931Z" fill="#314EF0"/>
<path d="M698.458 35.8977H723.566L725.717 51.4324H726.434C733.07 39.1593 743.108 33.7327 751.894 33.7327C757.448 33.7327 760.498 34.4497 763.015 35.5322L757.996 62.2575C754.762 61.5405 751.894 60.8095 747.958 60.8095C741.505 60.8095 733.618 64.7881 729.302 75.9787V126.182H698.458V35.8977Z" fill="#314EF0"/>
<path d="M767.823 0.512314H797.95V67.3186H798.667L823.41 35.8977H856.757L824.844 73.4622L858.557 126.182H825.21L807.271 94.044L797.95 104.518V126.182H767.823V0.512314Z" fill="#314EF0"/>
<path d="M850.684 81.0398C850.684 51.7839 871.842 33.7327 893.717 33.7327C920.26 33.7327 932.8 53.2319 932.8 77.4267C932.8 82.8393 932.083 88.2659 931.549 90.4309H880.446C883.314 101.27 891.201 104.883 901.253 104.883C907.354 104.883 913.09 103.084 919.543 99.4706L929.581 117.887C919.894 124.748 906.989 128.361 896.951 128.361C870.774 128.361 850.684 111.027 850.684 81.0538V81.0398ZM906.623 70.2006C906.623 63.34 903.755 57.1964 894.434 57.1964C887.616 57.1964 881.88 61.175 880.095 70.2006H906.637H906.623Z" fill="#314EF0"/>
<path d="M945.846 91.5275V60.1066H934.009V36.9943L947.632 35.9118L951.217 12.434H976.677V35.9118H997.118V60.1066H976.677V90.9792C976.677 100.905 981.696 104.166 987.432 104.166C990.3 104.166 993.167 103.449 995.318 102.718L999.986 125.113C995.318 126.561 988.697 128.361 978.828 128.361C955.519 128.361 945.832 113.557 945.832 91.5275H945.846Z" fill="#314EF0"/>
</g>
<defs>
<clipPath id="clip0_362_83">
<rect width="1000" height="157.456" fill="white" transform="translate(0 0.512314)"/>
</clipPath>
</defs>
</svg>
