<?xml version="1.0" encoding="UTF-8"?> <svg xmlns="http://www.w3.org/2000/svg" width="1811" height="238" viewBox="0 0 1811 238" fill="none"><path d="M419.333 235.932L469.281 96.1726H499.33L549.277 235.932H525.522L513.34 201.398H454.459L442.48 235.932H419.333ZM460.956 181.897H506.639L484.305 118.315H483.29L460.956 181.897Z" fill="#282020"></path><path d="M602.593 237.557C595.69 237.557 589.87 236.745 585.132 235.119C580.395 233.359 576.605 230.515 573.762 226.588C570.92 222.525 568.822 217.04 567.468 210.133C566.25 203.227 565.641 194.627 565.641 184.335C565.641 173.907 566.25 165.24 567.468 158.333C568.822 151.426 570.852 146.009 573.559 142.082C576.402 138.019 580.124 135.108 584.726 133.347C589.328 131.586 595.013 130.706 601.781 130.706C606.79 130.706 611.324 131.112 615.385 131.925C619.446 132.738 623.033 134.16 626.146 136.191C629.394 138.087 631.966 140.863 633.861 144.52H635.282V85H656.804V235.932H636.907L636.095 222.322H634.876C632.846 226.655 630.071 229.906 626.552 232.072C623.168 234.239 619.378 235.661 615.182 236.338C610.986 237.151 606.79 237.557 602.593 237.557ZM611.324 218.462C617.28 218.462 621.882 217.717 625.131 216.228C628.515 214.602 630.883 212.097 632.237 208.711C633.59 205.597 634.403 202.008 634.673 197.945C635.079 193.882 635.282 189.142 635.282 183.725C635.282 178.579 635.079 174.11 634.673 170.318C634.403 166.391 633.658 163.073 632.44 160.364C630.951 156.708 628.515 154.067 625.131 152.442C621.882 150.817 617.28 150.004 611.324 150.004C605.91 150.004 601.578 150.411 598.33 151.223C595.216 151.9 592.848 153.39 591.223 155.692C589.734 157.859 588.719 161.245 588.178 165.849C587.636 170.318 587.366 176.412 587.366 184.132C587.366 191.851 587.636 198.013 588.178 202.617C588.719 207.086 589.802 210.472 591.426 212.774C593.051 215.076 595.42 216.634 598.533 217.446C601.781 218.123 606.045 218.462 611.324 218.462Z" fill="#282020"></path><path d="M713.231 235.932L677.294 132.331H699.831L726.632 214.806H728.256L754.651 132.331H776.782L741.25 235.932H713.231Z" fill="#282020"></path><path d="M821.737 237.557C814.699 237.557 808.743 236.609 803.87 234.713C799.132 232.817 795.545 229.702 793.109 225.369C790.673 220.9 789.454 214.873 789.454 207.289C789.454 199.299 790.402 193.002 792.297 188.398C794.192 183.658 797.44 180.272 802.043 178.241C806.645 176.209 813.142 175.194 821.534 175.194C822.888 175.194 824.85 175.261 827.422 175.397C830.129 175.397 833.175 175.464 836.559 175.6C840.078 175.6 843.53 175.668 846.914 175.803C850.433 175.803 853.614 175.871 856.457 176.006V171.131C856.457 165.849 856.118 161.719 855.441 158.739C854.765 155.76 853.343 153.593 851.178 152.239C849.147 150.749 846.169 149.801 842.244 149.395C838.319 148.989 833.243 148.786 827.016 148.786C824.038 148.786 820.519 148.921 816.458 149.192C812.533 149.327 808.675 149.53 804.885 149.801C801.095 150.072 798.185 150.411 796.155 150.817V133.753C801.704 132.67 807.795 131.925 814.428 131.519C821.06 130.977 827.693 130.706 834.326 130.706C842.041 130.706 848.471 131.18 853.614 132.128C858.893 133.076 863.157 134.566 866.405 136.597C869.654 138.629 872.091 141.269 873.715 144.52C875.339 147.77 876.49 151.697 877.166 156.302C877.843 160.771 878.182 165.917 878.182 171.74V235.932H858.284L857.472 222.525H856.254C853.953 226.858 850.839 230.176 846.914 232.479C843.124 234.645 838.995 236 834.529 236.541C830.062 237.219 825.798 237.557 821.737 237.557ZM831.28 220.087C834.664 220.087 837.71 219.884 840.417 219.478C843.259 218.936 845.696 218.123 847.726 217.04C849.892 215.821 851.584 214.196 852.802 212.165C854.02 209.863 854.9 207.222 855.441 204.242C856.118 201.263 856.457 197.742 856.457 193.679V190.023H826.813C822.346 190.023 818.895 190.361 816.458 191.038C814.157 191.715 812.601 193.137 811.788 195.304C810.976 197.471 810.57 200.789 810.57 205.258C810.57 209.456 811.044 212.639 811.991 214.806C812.939 216.837 814.902 218.259 817.88 219.071C820.993 219.749 825.46 220.087 831.28 220.087Z" fill="#282020"></path><path d="M910.344 235.932V132.331H930.242L930.851 146.145H932.475C934.099 142.759 936.265 139.983 938.972 137.816C941.679 135.514 945.199 133.753 949.53 132.534C953.862 131.316 959.141 130.706 965.367 130.706C972.676 130.706 978.564 131.586 983.031 133.347C987.498 134.972 990.882 137.477 993.183 140.863C995.484 144.249 997.041 148.447 997.853 153.458C998.801 158.468 999.274 164.359 999.274 171.131V235.932H977.549V179.663C977.549 172.891 977.279 167.542 976.737 163.615C976.331 159.552 975.384 156.572 973.895 154.677C972.406 152.645 970.172 151.359 967.194 150.817C964.352 150.275 960.494 150.004 955.621 150.004C950.207 150.004 945.876 150.681 942.627 152.036C939.514 153.39 937.145 155.421 935.521 158.13C934.032 160.838 933.017 164.224 932.475 168.287C932.069 172.35 931.866 177.089 931.866 182.507V235.932H910.344Z" fill="#282020"></path><path d="M1070.07 237.557C1062.09 237.557 1055.46 236.88 1050.18 235.526C1045.03 234.036 1040.9 231.937 1037.79 229.228C1034.68 226.384 1032.38 222.863 1030.89 218.665C1029.4 214.332 1028.38 209.321 1027.84 203.633C1027.44 197.81 1027.23 191.241 1027.23 183.928C1027.23 176.751 1027.5 170.318 1028.05 164.63C1028.59 158.942 1029.67 153.999 1031.29 149.801C1033.05 145.468 1035.49 141.947 1038.6 139.238C1041.72 136.394 1045.78 134.295 1050.79 132.941C1055.79 131.451 1062.09 130.706 1069.67 130.706C1074.54 130.706 1079.62 130.977 1084.9 131.519C1090.31 132.06 1094.78 132.738 1098.3 133.55V150.614C1095.32 150.072 1091.6 149.666 1087.13 149.395C1082.8 148.989 1078.8 148.786 1075.15 148.786C1069.33 148.786 1064.66 149.26 1061.14 150.207C1057.76 151.155 1055.18 152.916 1053.42 155.489C1051.67 158.062 1050.45 161.651 1049.77 166.255C1049.23 170.86 1048.96 176.819 1048.96 184.132C1048.96 191.58 1049.23 197.674 1049.77 202.414C1050.45 207.154 1051.67 210.743 1053.42 213.18C1055.32 215.618 1058.03 217.311 1061.55 218.259C1065.07 219.071 1069.74 219.478 1075.56 219.478C1078.94 219.478 1082.73 219.342 1086.93 219.071C1091.26 218.665 1095.39 218.191 1099.31 217.65V234.713C1095.66 235.526 1091.12 236.203 1085.71 236.745C1080.29 237.286 1075.08 237.557 1070.07 237.557Z" fill="#282020"></path><path d="M1168.94 237.557C1160.14 237.557 1152.83 237.015 1147.01 235.932C1141.19 234.713 1136.52 232.817 1133 230.244C1129.48 227.536 1126.84 224.15 1125.08 220.087C1123.32 215.889 1122.17 210.878 1121.63 205.055C1121.09 199.096 1120.82 192.189 1120.82 184.335C1120.82 174.99 1121.29 166.933 1122.24 160.161C1123.19 153.39 1125.15 147.838 1128.13 143.504C1131.11 139.035 1135.71 135.785 1141.94 133.753C1148.3 131.722 1156.76 130.706 1167.32 130.706C1175.57 130.706 1182.34 131.383 1187.62 132.738C1192.9 133.956 1197.03 135.92 1200.01 138.629C1203.12 141.337 1205.35 144.858 1206.71 149.192C1208.19 153.39 1209.14 158.468 1209.55 164.427C1209.95 170.25 1210.16 176.886 1210.16 184.335V191.241H1142.55C1142.55 197.336 1142.82 202.279 1143.36 206.071C1143.9 209.727 1145.12 212.571 1147.01 214.602C1149.04 216.498 1152.16 217.853 1156.35 218.665C1160.68 219.342 1166.5 219.681 1173.81 219.681C1176.93 219.681 1180.31 219.613 1183.97 219.478C1187.76 219.342 1191.61 219.071 1195.54 218.665C1199.46 218.259 1202.98 217.92 1206.1 217.65V234.51C1203.12 235.052 1199.53 235.526 1195.34 235.932C1191.14 236.474 1186.74 236.88 1182.14 237.151C1177.54 237.422 1173.14 237.557 1168.94 237.557ZM1189.45 179.663V175.803C1189.45 169.709 1189.04 164.901 1188.23 161.38C1187.55 157.724 1186.33 155.015 1184.57 153.255C1182.95 151.359 1180.65 150.14 1177.67 149.598C1174.83 148.921 1171.24 148.582 1166.91 148.582C1161.5 148.582 1157.16 148.989 1153.92 149.801C1150.8 150.478 1148.43 151.833 1146.81 153.864C1145.19 155.895 1144.03 158.739 1143.36 162.396C1142.82 165.917 1142.55 170.589 1142.55 176.412H1193.1L1189.45 179.663Z" fill="#282020"></path><path d="M1264.29 235.932L1228.15 96.1726H1251.3L1279.31 208.102H1280.33L1310.99 96.1726H1334.95L1366.01 208.102H1367.23L1393.83 96.1726H1416.77L1380.63 235.932H1352.61L1322.97 130.097H1322.16L1292.31 235.932H1264.29Z" fill="#282020"></path><path d="M1475.04 237.557C1466.38 237.557 1459.14 237.015 1453.31 235.932C1447.63 234.849 1443.1 233.156 1439.71 230.854C1436.46 228.416 1434.03 225.166 1432.4 221.103C1430.91 217.04 1429.9 211.962 1429.36 205.867C1428.95 199.773 1428.75 192.46 1428.75 183.928C1428.75 175.532 1428.95 168.287 1429.36 162.193C1429.9 156.099 1430.91 151.02 1432.4 146.957C1434.03 142.894 1436.46 139.712 1439.71 137.41C1443.1 134.972 1447.63 133.279 1453.31 132.331C1459.14 131.248 1466.38 130.706 1475.04 130.706C1483.84 130.706 1491.08 131.248 1496.76 132.331C1502.59 133.279 1507.12 134.972 1510.37 137.41C1513.75 139.712 1516.19 142.894 1517.68 146.957C1519.3 151.02 1520.32 156.099 1520.72 162.193C1521.26 168.287 1521.54 175.532 1521.54 183.928C1521.54 192.46 1521.26 199.773 1520.72 205.867C1520.32 211.962 1519.3 217.04 1517.68 221.103C1516.19 225.166 1513.75 228.416 1510.37 230.854C1507.12 233.156 1502.59 234.849 1496.76 235.932C1491.08 237.015 1483.84 237.557 1475.04 237.557ZM1475.04 219.478C1481.27 219.478 1486.07 219.071 1489.46 218.259C1492.84 217.446 1495.21 215.821 1496.56 213.384C1498.05 210.946 1498.93 207.357 1499.2 202.617C1499.61 197.877 1499.81 191.648 1499.81 183.928C1499.81 176.209 1499.61 170.047 1499.2 165.443C1498.93 160.703 1498.05 157.114 1496.56 154.677C1495.21 152.239 1492.84 150.681 1489.46 150.004C1486.07 149.192 1481.27 148.786 1475.04 148.786C1468.95 148.786 1464.21 149.192 1460.83 150.004C1457.44 150.681 1455.01 152.239 1453.52 154.677C1452.16 157.114 1451.28 160.703 1450.88 165.443C1450.61 170.047 1450.47 176.209 1450.47 183.928C1450.47 191.648 1450.61 197.877 1450.88 202.617C1451.28 207.357 1452.16 210.946 1453.52 213.384C1455.01 215.821 1457.44 217.446 1460.83 218.259C1464.21 219.071 1468.95 219.478 1475.04 219.478Z" fill="#282020"></path><path d="M1549.59 235.932V132.331H1569.29L1570.1 151.02H1571.73C1573.48 145.603 1575.92 141.405 1579.03 138.425C1582.15 135.446 1585.94 133.415 1590.4 132.331C1594.87 131.248 1599.95 130.706 1605.63 130.706V151.833C1596.43 151.833 1589.32 153.187 1584.31 155.895C1579.44 158.604 1575.99 162.938 1573.96 168.896C1572.06 174.72 1571.12 182.371 1571.12 191.851V235.932H1549.59Z" fill="#282020"></path><path d="M1626.72 235.932V85H1648.25V174.787H1659.01L1692.1 132.331H1715.86L1676.27 182.303L1716.47 235.932H1691.9L1659.01 192.867H1648.25V235.932H1626.72Z" fill="#282020"></path><path d="M1771.72 237.557C1767.66 237.557 1763.26 237.422 1758.52 237.151C1753.92 236.88 1749.39 236.541 1744.92 236.135C1740.45 235.729 1736.46 235.255 1732.94 234.713V217.65C1735.24 217.785 1737.81 217.988 1740.66 218.259C1743.63 218.53 1746.75 218.733 1749.99 218.868C1753.24 219.004 1756.42 219.139 1759.54 219.275C1762.65 219.41 1765.7 219.478 1768.67 219.478C1775.17 219.478 1779.84 219.071 1782.68 218.259C1785.66 217.446 1787.56 216.092 1788.37 214.196C1789.32 212.165 1789.79 209.592 1789.79 206.477C1789.79 202.956 1789.45 200.383 1788.78 198.758C1788.23 197.132 1787.15 196.049 1785.53 195.507C1783.9 194.966 1781.4 194.492 1778.01 194.085L1752.84 191.038C1746.34 190.361 1741.4 188.872 1738.02 186.569C1734.77 184.132 1732.53 180.881 1731.32 176.819C1730.23 172.62 1729.69 167.542 1729.69 161.583C1729.69 154.677 1730.64 149.192 1732.53 145.129C1734.56 140.931 1737.34 137.816 1740.86 135.785C1744.51 133.753 1748.91 132.399 1754.06 131.722C1759.2 131.045 1764.82 130.706 1770.91 130.706C1774.7 130.706 1778.62 130.842 1782.68 131.112C1786.88 131.383 1790.87 131.79 1794.66 132.331C1798.59 132.738 1801.97 133.212 1804.82 133.753V150.817C1801.57 150.411 1798.05 150.072 1794.26 149.801C1790.47 149.53 1786.68 149.327 1782.89 149.192C1779.23 148.921 1775.71 148.786 1772.33 148.786C1767.32 148.786 1763.19 149.056 1759.94 149.598C1756.7 150.004 1754.26 151.088 1752.63 152.848C1751.15 154.473 1750.4 157.317 1750.4 161.38C1750.4 164.495 1750.6 166.865 1751.01 168.49C1751.55 169.98 1752.57 171.063 1754.06 171.74C1755.68 172.282 1758.12 172.756 1761.37 173.162L1788.57 176.412C1793.72 176.954 1797.84 178.037 1800.96 179.663C1804.21 181.152 1806.57 183.928 1808.06 187.991C1809.69 191.919 1810.5 197.945 1810.5 206.071C1810.5 212.842 1809.62 218.327 1807.86 222.525C1806.24 226.588 1803.73 229.77 1800.35 232.072C1796.96 234.239 1792.84 235.661 1787.96 236.338C1783.23 237.151 1777.81 237.557 1771.72 237.557Z" fill="#282020"></path><path d="M124.573 26.4445H69.6767L155.189 238H213.253L181.188 159.724L155.189 96.2578L124.573 26.4445Z" fill="#DE2055"></path><path d="M243.868 26.4445H188.972L274.484 238H332.548L243.868 26.4445Z" fill="#DE2055"></path><path d="M343.105 95.2L306.534 23.8L379.676 23.8L343.105 95.2Z" fill="#DE2055"></path><path d="M52.7853 88.8533L80.2134 165.013H25.3572L52.7853 88.8533Z" fill="#DE2055"></path><path d="M17.2432 196.747L88.3715 196.747L103.459 236.942H0L17.2432 196.747Z" fill="#DE2055"></path></svg> 